<?xml version="1.0" encoding="UTF-8" standalone="no"?>
<!-- Generator: Gravit.io -->
<svg xmlns="http://www.w3.org/2000/svg" xmlns:xlink="http://www.w3.org/1999/xlink" style="isolation:isolate" viewBox="0 0 1024 1024" width="1024pt" height="1024pt"><defs><clipPath id="_clipPath_PQW1AaxKJaV9KaErhJ0rjQnN3AcP35Q3"><rect width="1024" height="1024"/></clipPath></defs><g clip-path="url(#_clipPath_PQW1AaxKJaV9KaErhJ0rjQnN3AcP35Q3)"><g style="isolation:isolate"/><g style="isolation:isolate"><g><g><rect x="55.021" y="358" width="425.477" height="97" transform="matrix(1,0,0,1,0,0)" fill="rgb(234,234,234)"/><rect x="480.498" y="358" width="425.477" height="97" transform="matrix(1,0,0,1,0,0)" fill="rgb(96,53,216)"/><rect x="742.472" y="455" width="280.969" height="97" transform="matrix(1,0,0,1,0,0)" fill="rgb(234,234,234)"/><g opacity="0.7"><path d=" M 578.968 552 L 859.937 552 L 859.937 649 L 578.968 649 L 578.968 552 Z " fill="rgb(234,234,234)"/></g><rect x="0" y="552" width="153.491" height="97" transform="matrix(1,0,0,1,0,0)" fill="rgb(234,234,234)"/><rect x="316.994" y="455" width="425.477" height="97" transform="matrix(1,0,0,1,0,0)" fill="rgb(252,134,29)"/><rect x="153.491" y="552" width="425.477" height="97" transform="matrix(1,0,0,1,0,0)" fill="rgb(244,39,157)"/></g></g></g></g></svg>